<svg id="Layer_1" data-name="Layer 1" xmlns="http://www.w3.org/2000/svg" viewBox="0 0 386.36 308.41"><defs><style>.cls-1,.cls-12,.cls-14,.cls-16,.cls-17,.cls-2,.cls-5,.cls-6,.cls-8{fill:none;}.cls-1{stroke:#ed1c24;}.cls-1,.cls-12,.cls-14,.cls-16,.cls-17,.cls-5,.cls-7{stroke-miterlimit:10;}.cls-2,.cls-5{stroke:#000;}.cls-17,.cls-2,.cls-5{stroke-linecap:square;}.cls-2,.cls-6{stroke-linejoin:round;}.cls-3{font-size:16.67px;}.cls-3,.cls-4{fill:#231f20;font-family:ArialMT, Arial;}.cls-4{font-size:22.08px;}.cls-6{stroke:#221f1f;stroke-width:2px;}.cls-15,.cls-7{fill:#f26522;}.cls-14,.cls-7{stroke:#f26522;}.cls-7{stroke-width:0.75px;}.cls-16,.cls-17,.cls-8{stroke:#808285;}.cls-8{stroke-linejoin:bevel;stroke-width:0.5px;stroke-dasharray:2 2;opacity:0.7;}.cls-11,.cls-9{fill:#ed1c24;}.cls-10,.cls-9{opacity:0.2;}.cls-10,.cls-13{fill:#21409a;}.cls-12{stroke:#21409a;}.cls-18{fill:#808285;}</style></defs><title>grip_timelime</title><rect class="cls-1" x="121.31" y="160.65" width="160.66" height="21.71"/><line class="cls-2" x1="61.67" y1="252.75" x2="373.84" y2="252.75"/><line class="cls-2" x1="61.67" y1="253.03" x2="61.67" y2="256.15"/><line class="cls-2" x1="106.26" y1="253.03" x2="106.26" y2="256.15"/><line class="cls-2" x1="150.86" y1="253.03" x2="150.86" y2="256.15"/><line class="cls-2" x1="195.45" y1="253.03" x2="195.45" y2="256.15"/><line class="cls-2" x1="240.05" y1="253.03" x2="240.05" y2="256.15"/><line class="cls-2" x1="284.65" y1="253.03" x2="284.65" y2="256.15"/><line class="cls-2" x1="329.24" y1="253.03" x2="329.24" y2="256.15"/><line class="cls-2" x1="373.84" y1="253.03" x2="373.84" y2="256.15"/><text class="cls-3" transform="translate(56.05 275.65)">0</text><text class="cls-3" transform="translate(95.61 275.65)">0.5</text><text class="cls-3" transform="translate(145.24 275.65)">1</text><text class="cls-3" transform="translate(184.8 275.65)">1.5</text><text class="cls-3" transform="translate(234.43 275.65)">2</text><text class="cls-3" transform="translate(273.99 275.65)">2.5</text><text class="cls-3" transform="translate(323.62 275.65)">3</text><text class="cls-3" transform="translate(363.18 275.65)">3.5</text><text class="cls-4" transform="translate(177.27 301.24)">Time (s)</text><line class="cls-2" x1="61.67" y1="252.75" x2="61.67" y2="10.36"/><line class="cls-2" x1="61.24" y1="252.75" x2="58.11" y2="252.75"/><line class="cls-5" x1="61.24" y1="225.82" x2="58.11" y2="225.82"/><line class="cls-5" x1="61.24" y1="198.89" x2="58.11" y2="198.89"/><line class="cls-5" x1="61.24" y1="171.95" x2="58.11" y2="171.95"/><line class="cls-5" x1="61.24" y1="145.02" x2="58.11" y2="145.02"/><line class="cls-5" x1="61.24" y1="118.09" x2="58.11" y2="118.09"/><line class="cls-5" x1="61.24" y1="91.16" x2="58.11" y2="91.16"/><line class="cls-5" x1="61.24" y1="64.22" x2="58.11" y2="64.22"/><line class="cls-5" x1="61.24" y1="37.29" x2="58.11" y2="37.29"/><line class="cls-5" x1="61.24" y1="10.36" x2="58.11" y2="10.36"/><text class="cls-3" transform="translate(36.86 256.71)">0</text><text class="cls-3" transform="translate(36.86 229.78)">5</text><text class="cls-3" transform="translate(32.22 202.84)">10</text><text class="cls-3" transform="translate(32.22 175.91)">15</text><text class="cls-3" transform="translate(32.22 148.98)">20</text><text class="cls-3" transform="translate(32.22 122.04)">25</text><text class="cls-3" transform="translate(32.22 95.11)">30</text><text class="cls-3" transform="translate(32.22 68.18)">35</text><text class="cls-3" transform="translate(32.22 41.25)">40</text><text class="cls-3" transform="translate(32.22 14.31)">45</text><text class="cls-4" transform="translate(18.95 202.71) rotate(-90)">Grip Force(N)</text><polyline class="cls-6" points="62.12 236.53 62.56 236.94 63.01 236.51 63.45 236.22 63.9 235.61 64.34 234.91 64.79 234.49 65.24 233.59 65.68 232.73 66.13 232.03 66.57 231.58 67.02 230.94 67.47 230.09 67.91 229.62 68.36 228.92 68.8 228.58 69.25 227.97 69.7 228.09 70.14 227.41 70.59 226.96 71.03 226.73 71.48 226.33 71.93 225.96 72.37 225.54 72.82 225.22 73.26 225.04 73.71 224.5 74.16 224.14 74.6 223.75 75.05 223.1 75.49 222.67 75.94 222.13 76.39 221.68 76.83 221.03 77.28 220.47 77.72 219.43 78.17 218.96 78.61 218.34 79.06 217.51 79.51 216.79 79.95 216.09 80.4 214.97 80.84 214.18 81.29 213.46 81.74 212.13 82.18 211.2 82.63 210.25 83.08 209.31 83.52 207.57 83.97 205.66 84.41 203.11 84.86 199.8 85.3 195.96 85.75 192.4 86.2 188.19 86.64 183.84 87.09 179.21 87.53 174.71 87.98 169.91 88.43 165.03 88.87 159.67 89.32 154.56 89.76 149.21 90.21 143.04 90.66 136.86 91.1 130.95 91.55 124.89 91.99 118.54 92.44 112.54 92.89 107.13 93.33 101.79 93.78 96.72 94.22 91.37 94.67 86.1 95.11 80.76 95.56 75.86 96.01 70.68 96.45 65.72 96.9 60.97 97.34 55.73 97.79 52.51 98.24 49.45 98.68 46.74 99.13 44.02 99.58 41.72 100.02 39.85 100.47 37.93 100.91 36.06 101.36 34.3 101.81 32.23 102.25 30.99 102.7 29.97 103.14 28.91 103.59 28.08 104.03 25.37 104.48 25.2 104.93 24 105.37 22.47 105.82 21.11 106.26 19.99 106.71 18.97 107.16 18.39 107.6 17.78 108.05 17.53 108.49 17.39 108.94 17.08 109.39 16.83 109.83 16.76 110.28 16.79 110.72 16.65 111.17 16.77 111.62 16.7 112.06 16.72 112.51 16.7 112.95 16.94 113.4 16.97 113.84 17.12 114.29 17.51 114.74 17.4 115.18 17.48 115.63 18.09 116.08 17.75 116.52 18.11 116.97 18.32 117.41 18.63 117.86 18.82 118.31 18.9 118.75 19.02 119.2 19.22 119.64 19.18 120.09 19.24 120.53 19.47 120.98 19.47 121.43 19.87 121.87 19.35 122.32 19.63 122.76 20.01 123.21 19.7 123.66 19.65 124.1 19.69 124.55 19.67 124.99 19.78 125.44 19.74 125.89 20.17 126.33 19.99 126.78 19.98 127.22 20.73 127.67 20.21 128.12 20.15 128.56 20.19 129.01 20.05 129.45 19.94 129.9 20.03 130.35 20.07 130.79 20.05 131.24 20.14 131.68 20.14 132.13 20.33 132.57 20.24 133.02 20.32 133.47 20.44 133.91 20.55 134.36 20.71 134.81 21.05 135.25 21.13 135.7 21.23 136.14 21.34 136.59 21.41 137.03 21.39 137.48 21.39 137.93 21.45 138.37 21.72 138.82 21.81 139.26 22.04 139.71 22.45 140.16 21.97 140.6 22.36 141.05 22.31 141.49 22.35 141.94 22.15 142.39 22.11 142.83 22.27 143.28 22.24 143.72 22.6 144.17 23.26 144.62 23.23 145.06 23.55 145.51 23.59 145.95 23.16 146.4 23.57 146.85 23.89 147.29 23.71 147.74 23.48 148.18 23.62 148.63 24.04 149.08 24.13 149.52 24.49 149.97 25.48 150.41 26.36 150.86 27.34 151.31 27.77 151.75 27.9 152.2 27.92 152.64 27.07 153.09 27.29 153.53 26.84 153.98 26.48 154.43 26.46 154.87 26.45 155.32 26.25 155.76 26.77 156.21 26.37 156.66 26.48 157.1 26.63 157.55 27.02 158 26.8 158.44 27.06 158.89 27.16 159.33 27.4 159.78 27.16 160.22 27.34 160.67 27.11 161.12 27.47 161.56 27.43 162.01 27.54 162.45 27.7 162.9 28.05 163.35 28.35 163.79 28.66 164.24 28.93 164.68 28.96 165.13 28.55 165.58 28.73 166.02 28.48 166.47 28.21 166.91 28.24 167.36 27.97 167.81 27.86 168.25 27.76 168.7 27.58 169.14 27.65 169.59 27.58 170.03 27.65 170.48 27.85 170.93 27.7 171.37 27.6 171.82 27.76 172.26 27.81 172.71 27.88 173.16 27.92 173.6 28.05 174.05 28.06 174.5 28.51 174.94 28.55 175.39 28.84 175.83 29.02 176.28 29.16 176.72 29.27 177.17 29.3 177.62 29.41 178.06 29.14 178.51 28.84 178.95 28.71 179.4 28.55 179.85 28.58 180.29 28.46 180.74 28.37 181.18 28.12 181.63 28.15 182.08 28.17 182.52 28.35 182.97 28.12 183.41 28.4 183.86 28.37 184.31 28.37 184.75 28.53 185.2 28.69 185.64 28.73 186.09 28.62 186.54 28.73 186.98 28.26 187.43 28.78 187.87 28.73 188.32 28.57 188.76 28.84 189.21 28.91 189.66 28.87 190.1 29.02 190.55 28.84 191 28.82 191.44 28.76 191.89 28.66 192.33 28.67 192.78 28.62 193.22 29.02 193.67 28.6 194.12 28.46 194.56 28.76 195.01 28.78 195.46 27.94 195.9 28.78 196.35 29.9 196.79 28.98 197.24 28.84 197.68 28.69 198.13 28.69 198.58 28.69 199.02 28.57 199.47 28.67 199.91 28.69 200.36 28.69 200.81 28.73 201.25 28.76 201.7 28.85 202.14 28.8 202.59 28.98 203.04 28.8 203.48 28.67 203.93 28.87 204.37 28.89 204.82 29.02 205.27 29.05 205.71 29.12 206.16 29.16 206.6 29.18 207.05 28.93 207.5 28.91 207.94 29.05 208.39 29.03 208.83 28.51 209.28 28.58 209.72 28.84 210.17 28.64 210.62 28.75 211.06 28.69 211.51 28.76 211.96 28.98 212.4 28.84 212.85 28.8 213.29 29.38 213.74 28.51 214.19 29.03 214.63 28.8 215.08 29.12 215.52 29.38 215.97 29.34 216.41 29.23 216.86 29.21 217.31 29.09 217.75 28.93 218.2 28.82 218.64 28.75 219.09 28.53 219.54 28.69 219.98 28.32 220.43 28.87 220.87 28.69 221.32 28.51 221.77 28.48 222.21 28.55 222.66 28.62 223.1 28.37 223.55 28.44 224 28.51 224.44 28.48 224.89 28.44 225.33 28.75 225.78 28.91 226.22 28.51 226.67 29.03 227.12 28.73 227.56 28.49 228.01 28.49 228.46 28.44 228.9 28.33 229.35 28.26 229.79 28.51 230.24 28.67 230.69 28.84 231.13 29.11 231.58 29.23 232.02 29.27 232.47 29.55 232.91 29.27 233.36 29.45 233.81 29.2 234.25 29.14 234.7 28.84 235.14 28.69 235.59 28.8 236.04 28.73 236.48 28.62 236.93 28.69 237.37 28.76 237.82 28.84 238.27 28.82 238.71 29.02 239.16 28.76 239.6 28.69 240.05 28.73 240.5 28.94 240.94 28.91 241.39 29.46 241.83 29.27 242.28 29.36 242.73 29.63 243.17 30.08 243.62 30.83 244.06 31.05 244.51 32 244.96 31.69 245.4 31.89 245.85 31.5 246.29 31.07 246.74 31.07 247.19 30.92 247.63 30.89 248.08 30.85 248.52 30.94 248.97 30.85 249.41 30.96 249.86 31.24 250.31 31.46 250.75 31.48 251.2 32.74 251.65 32.36 252.09 32.92 252.54 33.51 252.98 33.51 253.43 33.56 253.87 33.29 254.32 33.04 254.77 32.86 255.21 32.74 255.66 32.65 256.1 32.4 256.55 32.52 257 32.23 257.44 32.72 257.89 32.36 258.33 32.77 258.78 32.75 259.23 32.95 259.67 33.01 260.12 33.01 260.56 32.93 261.01 32.79 261.46 32.93 261.9 32.92 262.35 32.79 262.79 32.92 263.24 33.04 263.69 33.53 264.13 33.4 264.58 33.38 265.02 33.2 265.47 33.06 265.92 33.15 266.36 33.19 266.81 33.04 267.25 32.99 267.7 32.99 268.14 32.93 268.59 32.97 269.04 33.24 269.48 32.79 269.93 32.95 270.38 33.06 270.82 33.29 271.27 33.35 271.71 33.56 272.16 33.83 272.61 34.01 273.05 34.26 273.5 33.76 273.94 34.3 274.39 34.23 274.83 34.12 275.28 34.1 275.73 33.8 276.17 33.8 276.62 33.85 277.06 33.85 277.51 33.8 277.96 33.87 278.4 33.99 278.85 34.19 279.29 34.08 279.74 34.16 280.19 34.23 280.63 34.08 281.08 34.07 281.52 33.87 281.97 34.03 282.42 33.8 282.86 33.27 283.31 32.84 283.75 33.2 284.2 33.15 284.64 33.08 285.09 33.04 285.54 33.13 285.98 33.2 286.43 33.19 286.88 33.13 287.32 33.26 287.77 33.22 288.21 33.85 288.66 33.24 289.11 33.37 289.55 32.99 290 33.08 290.44 33.26 290.89 33.44 291.33 33.17 291.78 33.71 292.23 33.85 292.67 33.74 293.12 33.83 293.56 33.63 294.01 33.62 294.46 33.33 294.9 33.37 295.35 33.26 295.79 32.79 296.24 33.04 296.69 32.65 297.13 32.5 297.58 32.43 298.02 32.16 298.47 32.18 298.92 32.18 299.36 32.32 299.81 32.2 300.25 32.5 300.7 32.36 301.15 32.57 301.59 32.86 302.04 32.7 302.48 32.59 302.93 32.57 303.38 32.65 303.82 32.4 304.27 32.34 304.71 32.11 305.16 32.18 305.61 32.22 306.05 32 306.5 32.11 306.94 32.07 307.39 32.36 307.83 32.48 308.28 32.41 308.73 32.48 309.17 32.3 309.62 32.36 310.06 32.11 310.51 31.98 310.96 32 311.4 31.84 311.85 31.51 312.29 31.35 312.74 31.24 313.19 30.61 313.63 30.45 314.08 30.35 314.52 30.22 314.97 30.17 315.42 29.99 315.86 30.06 316.31 29.95 316.75 29.95 317.2 30.18 317.65 29.99 318.09 30.51 318.54 30.13 318.98 30.24 319.43 30.24 319.88 30.29 320.32 30.2 320.77 30.54 321.21 30.4 321.66 30.49 322.11 30.52 322.55 30.76 323 30.85 323.44 30.92 323.89 31.42 324.33 30.7 324.78 31.21 325.23 30.78 325.67 30.94 326.12 30.83 326.56 30.99 327.01 30.74 327.46 30.69 327.9 30.67 328.35 30.52 328.8 30.47 329.24 30.38 329.69 30.2 330.13 30.06 330.58 29.81 331.02 29.57 331.47 29.59 331.92 28.76 332.36 28.39 332.81 28.39 333.25 27.51 333.7 27.15 334.15 27.06 334.59 26.66 335.04 26.39 335.48 26.3 335.93 26.12 336.38 26.09 336.82 25.92 337.27 25.46 337.71 26.07 338.16 25.53 338.61 25.46 339.05 25.31 339.5 25.3 339.94 25.17 340.39 25.24 340.83 24.81 341.28 24.85 341.73 24.68 342.17 24.83 342.62 24.86 343.06 24.83 343.51 24.77 343.96 25.06 344.4 24.83 344.85 25.17 345.3 24.92 345.74 25.26 346.19 25.3 346.63 25.46 347.08 25.85 347.52 25.85 347.97 26.48 348.42 26.79 348.86 27.36 349.31 28.06 349.75 28.91 350.2 30.6 350.65 33.01 351.09 34.71 351.54 38.99 351.98 44.49 352.43 51.57 352.88 59.95 353.32 69.69 353.77 81.46 354.21 93.18 354.66 105.19 355.11 116.58 355.55 127.37 356 137.97 356.44 147.32 356.89 155.93 357.34 164.61 357.78 172.03 358.23 179.06 358.67 185.46 359.12 191.46 359.56 197.79 360.01 203.42 360.46 207.96 360.9 211.61 361.35 216 361.8 221.01 362.24 224.18 362.69 226.89 363.13 229.39 363.58 231.69 364.02 233.76 364.47 235.52 364.92 237.15 365.36 238.48 365.81 239.62 366.25 240.51 366.7 241.84 367.15 241.94 367.59 242.78 368.04 243.12 368.48 243.59 368.93 244.27 369.38 244.74 369.82 244.97 370.27 245.22 370.71 245.31 371.16 245.33 371.61 245.21 372.05 245.01 372.5 245.13"/><path class="cls-7" d="M96,67.56a3.12,3.12,0,1,0,3.11,3.12A3.12,3.12,0,0,0,96,67.56ZM96,68a2.64,2.64,0,1,1-2.64,2.64A2.64,2.64,0,0,1,96,68Z"/><path class="cls-7" d="M106.71,15.85A3.12,3.12,0,1,0,109.83,19,3.12,3.12,0,0,0,106.71,15.85Zm0,.48A2.64,2.64,0,1,1,104.07,19,2.64,2.64,0,0,1,106.71,16.33Z"/><path class="cls-7" d="M118.75,15.91A3.12,3.12,0,1,0,121.87,19,3.12,3.12,0,0,0,118.75,15.91Zm0,.47A2.64,2.64,0,1,1,116.11,19,2.64,2.64,0,0,1,118.75,16.38Z"/><path class="cls-7" d="M132.13,17.22a3.12,3.12,0,1,0,3.12,3.11A3.12,3.12,0,0,0,132.13,17.22Zm0,.48a2.64,2.64,0,1,1-2.64,2.63A2.64,2.64,0,0,1,132.13,17.7Z"/><path class="cls-7" d="M147.29,20.6a3.12,3.12,0,1,0,3.12,3.11A3.12,3.12,0,0,0,147.29,20.6Zm0,.48a2.64,2.64,0,1,1-2.64,2.63A2.64,2.64,0,0,1,147.29,21.08Z"/><path class="cls-7" d="M165.13,25.43a3.12,3.12,0,1,0,3.12,3.12A3.12,3.12,0,0,0,165.13,25.43Zm0,.48a2.64,2.64,0,1,1-2.64,2.64A2.64,2.64,0,0,1,165.13,25.91Z"/><path class="cls-7" d="M186.09,25.5a3.12,3.12,0,1,0,3.12,3.12A3.12,3.12,0,0,0,186.09,25.5Zm0,.48a2.64,2.64,0,1,1-2.64,2.64A2.64,2.64,0,0,1,186.09,26Z"/><path class="cls-7" d="M211.06,25.58a3.12,3.12,0,1,0,3.12,3.11A3.11,3.11,0,0,0,211.06,25.58Zm0,.47a2.64,2.64,0,1,1-2.63,2.64A2.64,2.64,0,0,1,211.06,26.05Z"/><path class="cls-7" d="M240.5,25.83a3.12,3.12,0,1,0,3.11,3.11A3.11,3.11,0,0,0,240.5,25.83Zm0,.48a2.64,2.64,0,1,1-2.64,2.63A2.63,2.63,0,0,1,240.5,26.31Z"/><path class="cls-7" d="M277.06,30.73a3.12,3.12,0,1,0,3.12,3.12A3.12,3.12,0,0,0,277.06,30.73Zm0,.48a2.64,2.64,0,1,1-2.63,2.64A2.64,2.64,0,0,1,277.06,31.21Z"/><path class="cls-7" d="M323.44,27.8a3.12,3.12,0,1,0,3.12,3.12A3.12,3.12,0,0,0,323.44,27.8Zm0,.48a2.64,2.64,0,1,1-2.63,2.64A2.64,2.64,0,0,1,323.44,28.28Z"/><line class="cls-8" x1="61.67" y1="91.16" x2="373.84" y2="91.16"/><rect class="cls-9" x="62.76" y="11.35" width="31.4" height="240.25"/><rect class="cls-10" x="325.55" y="11.95" width="27.88" height="240.25"/><text class="cls-3" transform="translate(129.34 175.12)">grip ramp-up phase</text><text class="cls-3" transform="translate(172.7 231.08)">giving up phase</text><line class="cls-1" x1="76.08" y1="171.5" x2="112.01" y2="171.5"/><polygon class="cls-11" points="116.24 171.5 110.27 173.94 111.69 171.5 110.27 169.06 116.24 171.5"/><line class="cls-12" x1="301.76" y1="226.89" x2="335.88" y2="226.89"/><polygon class="cls-13" points="297.52 226.9 303.49 229.33 302.08 226.9 303.49 224.46 297.52 226.9"/><rect class="cls-12" x="167.83" y="215.55" width="127.73" height="21.71"/><path class="cls-7" d="M154,65.37a3.12,3.12,0,1,0,3.12,3.12A3.11,3.11,0,0,0,154,65.37Zm0,.48a2.64,2.64,0,1,1-2.63,2.64A2.64,2.64,0,0,1,154,65.85Z"/><line class="cls-14" x1="162.01" y1="68.58" x2="198.42" y2="68.41"/><polygon class="cls-15" points="196.74 70.64 197.68 68.41 196.72 66.2 202 68.39 196.74 70.64"/><rect class="cls-14" x="205.98" y="57.55" width="81.14" height="20.22"/><text class="cls-3" transform="translate(209.79 71.81)">berry gain</text><line class="cls-16" x1="130.72" y1="92.92" x2="130.99" y2="114.63"/><line class="cls-17" x1="130.99" y1="114.04" x2="151.49" y2="114.04"/><polygon class="cls-18" points="155.73 114.05 149.76 116.48 151.18 114.05 149.76 111.61 155.73 114.05"/><rect class="cls-16" x="159.81" y="101.43" width="118.68" height="22.27"/><text class="cls-3" transform="translate(164.67 117.73)">force threshold</text></svg>