<?xml version="1.0" encoding="utf-8"?>
<!-- Generator: Adobe Illustrator 23.0.1, SVG Export Plug-In . SVG Version: 6.00 Build 0)  -->
<svg version="1.1" id="Layer_1" xmlns="http://www.w3.org/2000/svg" xmlns:xlink="http://www.w3.org/1999/xlink" x="0px" y="0px"
	 viewBox="0 0 216 144" style="enable-background:new 0 0 216 144;" xml:space="preserve">
<style type="text/css">
	.st0{fill:none;stroke:#FFFFFF;stroke-width:1.07;stroke-linejoin:round;stroke-miterlimit:10;}
	.st1{fill:#A7ACD7;}
	.st2{fill:none;stroke:#000000;stroke-linejoin:round;stroke-miterlimit:10;}
	.st3{fill:none;stroke:#000000;stroke-width:0.75;stroke-linecap:round;stroke-linejoin:round;stroke-miterlimit:10;}
	.st4{fill:none;stroke:#333333;stroke-width:1.07;stroke-linejoin:round;stroke-miterlimit:10;}
	.st5{font-family:'GillSansMT';}
	.st6{font-size:6px;}
	.st7{fill:none;stroke:#000000;stroke-width:0.75;stroke-linejoin:round;stroke-miterlimit:10;}
	.st8{fill:none;stroke:#000000;stroke-width:1.07;stroke-linejoin:round;stroke-miterlimit:10;}
	.st9{font-family:'Arial-BoldMT';}
	.st10{font-size:6.5248px;}
	.st11{font-size:8px;}
	.st12{stroke:#000000;stroke-width:0.05;stroke-miterlimit:10;}
	.st13{font-size:6.7221px;}
	.st14{stroke:#000000;stroke-width:1.07;stroke-linejoin:round;stroke-miterlimit:10;}
</style>
<g>
	<line class="st0" x1="203.3" y1="80.01" x2="215.63" y2="80.01"/>
	<rect x="204.84" y="63.74" class="st1" width="9.25" height="16.27"/>
	<line class="st2" x1="204.84" y1="57.9" x2="214.09" y2="57.9"/>
	<line class="st2" x1="209.46" y1="57.9" x2="209.46" y2="69.58"/>
	<line class="st2" x1="204.84" y1="69.58" x2="214.09" y2="69.58"/>
	<line class="st3" x1="203.3" y1="123.3" x2="215.63" y2="123.3"/>
	<line class="st4" x1="209.46" y1="124.06" x2="209.46" y2="123.06"/>
	<text transform="matrix(1 0 0 1 206.4916 129.873)" class="st5 st6">All</text>
	<line class="st0" x1="23.42" y1="81.21" x2="195" y2="81.21"/>
	<rect x="24.92" y="22.93" class="st1" width="8.98" height="58.27"/>
	<rect x="34.89" y="40.01" class="st1" width="8.98" height="41.2"/>
	<rect x="44.87" y="42.44" class="st1" width="8.98" height="38.76"/>
	<rect x="54.84" y="43.32" class="st1" width="8.98" height="37.89"/>
	<rect x="64.82" y="46.1" class="st1" width="8.98" height="35.11"/>
	<rect x="74.79" y="56.79" class="st1" width="8.98" height="24.42"/>
	<rect x="84.77" y="60.5" class="st1" width="8.98" height="20.7"/>
	<rect x="94.74" y="61.3" class="st1" width="8.98" height="19.9"/>
	<rect x="104.72" y="61.87" class="st1" width="8.98" height="19.33"/>
	<rect x="114.7" y="62.43" class="st1" width="8.98" height="18.78"/>
	<rect x="124.67" y="72.39" class="st1" width="8.98" height="8.81"/>
	<rect x="134.65" y="73.88" class="st1" width="8.98" height="7.33"/>
	<rect x="144.62" y="74.22" class="st1" width="8.98" height="6.99"/>
	<rect x="154.6" y="81.21" class="st1" width="8.98" height="9.38"/>
	<rect x="164.57" y="81.21" class="st1" width="8.98" height="12.41"/>
	<rect x="174.55" y="81.21" class="st1" width="8.98" height="19.83"/>
	<rect x="184.52" y="81.21" class="st1" width="8.98" height="27.47"/>
	<line class="st7" x1="114.7" y1="52.73" x2="123.67" y2="52.73"/>
	<line class="st7" x1="119.19" y1="52.73" x2="119.19" y2="72.13"/>
	<line class="st7" x1="114.7" y1="72.13" x2="123.67" y2="72.13"/>
	<line class="st7" x1="84.77" y1="54.22" x2="93.75" y2="54.22"/>
	<line class="st7" x1="89.26" y1="54.22" x2="89.26" y2="66.79"/>
	<line class="st7" x1="84.77" y1="66.79" x2="93.75" y2="66.79"/>
	<line class="st7" x1="54.84" y1="39.35" x2="63.82" y2="39.35"/>
	<line class="st7" x1="59.33" y1="39.35" x2="59.33" y2="47.29"/>
	<line class="st7" x1="54.84" y1="47.29" x2="63.82" y2="47.29"/>
	<line class="st7" x1="104.72" y1="57.33" x2="113.7" y2="57.33"/>
	<line class="st7" x1="109.21" y1="57.33" x2="109.21" y2="66.42"/>
	<line class="st7" x1="104.72" y1="66.42" x2="113.7" y2="66.42"/>
	<line class="st7" x1="134.65" y1="68.29" x2="143.63" y2="68.29"/>
	<line class="st7" x1="139.14" y1="68.29" x2="139.14" y2="79.47"/>
	<line class="st7" x1="134.65" y1="79.47" x2="143.63" y2="79.47"/>
	<line class="st7" x1="184.52" y1="99.29" x2="193.5" y2="99.29"/>
	<line class="st7" x1="189.01" y1="99.29" x2="189.01" y2="118.05"/>
	<line class="st7" x1="184.52" y1="118.05" x2="193.5" y2="118.05"/>
	<line class="st7" x1="164.57" y1="84.97" x2="173.55" y2="84.97"/>
	<line class="st7" x1="169.06" y1="84.97" x2="169.06" y2="102.25"/>
	<line class="st7" x1="164.57" y1="102.25" x2="173.55" y2="102.25"/>
	<line class="st7" x1="44.87" y1="36.84" x2="53.84" y2="36.84"/>
	<line class="st7" x1="49.36" y1="36.84" x2="49.36" y2="48.05"/>
	<line class="st7" x1="44.87" y1="48.05" x2="53.84" y2="48.05"/>
	<line class="st7" x1="154.6" y1="83.75" x2="163.58" y2="83.75"/>
	<line class="st7" x1="159.09" y1="83.75" x2="159.09" y2="97.42"/>
	<line class="st7" x1="154.6" y1="97.42" x2="163.58" y2="97.42"/>
	<line class="st7" x1="124.67" y1="65.2" x2="133.65" y2="65.2"/>
	<line class="st7" x1="129.16" y1="65.2" x2="129.16" y2="79.59"/>
	<line class="st7" x1="124.67" y1="79.59" x2="133.65" y2="79.59"/>
	<line class="st7" x1="74.79" y1="50.23" x2="83.77" y2="50.23"/>
	<line class="st7" x1="79.28" y1="50.23" x2="79.28" y2="63.35"/>
	<line class="st7" x1="74.79" y1="63.35" x2="83.77" y2="63.35"/>
	<line class="st7" x1="174.55" y1="96.07" x2="183.53" y2="96.07"/>
	<line class="st7" x1="179.04" y1="96.07" x2="179.04" y2="106"/>
	<line class="st7" x1="174.55" y1="106" x2="183.53" y2="106"/>
	<line class="st7" x1="24.92" y1="14.65" x2="33.89" y2="14.65"/>
	<line class="st7" x1="29.4" y1="14.65" x2="29.4" y2="31.21"/>
	<line class="st7" x1="24.92" y1="31.21" x2="33.89" y2="31.21"/>
	<line class="st7" x1="64.82" y1="36.57" x2="73.8" y2="36.57"/>
	<line class="st7" x1="69.31" y1="36.57" x2="69.31" y2="55.63"/>
	<line class="st7" x1="64.82" y1="55.63" x2="73.8" y2="55.63"/>
	<line class="st7" x1="94.74" y1="55.09" x2="103.72" y2="55.09"/>
	<line class="st7" x1="99.23" y1="55.09" x2="99.23" y2="67.51"/>
	<line class="st7" x1="94.74" y1="67.51" x2="103.72" y2="67.51"/>
	<line class="st7" x1="144.62" y1="63.3" x2="153.6" y2="63.3"/>
	<line class="st7" x1="149.11" y1="63.3" x2="149.11" y2="85.14"/>
	<line class="st7" x1="144.62" y1="85.14" x2="153.6" y2="85.14"/>
	<line class="st7" x1="34.89" y1="32" x2="43.87" y2="32"/>
	<line class="st7" x1="39.38" y1="32" x2="39.38" y2="48.01"/>
	<line class="st7" x1="34.89" y1="48.01" x2="43.87" y2="48.01"/>
	<line class="st3" x1="23.42" y1="123.23" x2="195" y2="123.23"/>
	<line class="st8" x1="29.4" y1="123.98" x2="29.4" y2="122.98"/>
	<line class="st8" x1="39.38" y1="123.98" x2="39.38" y2="122.98"/>
	<line class="st8" x1="49.36" y1="123.98" x2="49.36" y2="122.98"/>
	<line class="st8" x1="59.33" y1="123.98" x2="59.33" y2="122.98"/>
	<line class="st8" x1="69.31" y1="123.98" x2="69.31" y2="122.98"/>
	<line class="st8" x1="79.28" y1="123.98" x2="79.28" y2="122.98"/>
	<line class="st8" x1="89.26" y1="123.98" x2="89.26" y2="122.98"/>
	<line class="st8" x1="99.23" y1="123.98" x2="99.23" y2="122.98"/>
	<line class="st8" x1="109.21" y1="123.98" x2="109.21" y2="122.98"/>
	<line class="st8" x1="119.19" y1="123.98" x2="119.19" y2="122.98"/>
	<line class="st8" x1="129.16" y1="123.98" x2="129.16" y2="122.98"/>
	<line class="st8" x1="139.14" y1="123.98" x2="139.14" y2="122.98"/>
	<line class="st8" x1="149.11" y1="123.98" x2="149.11" y2="122.98"/>
	<line class="st8" x1="159.09" y1="123.98" x2="159.09" y2="122.98"/>
	<line class="st8" x1="169.06" y1="123.98" x2="169.06" y2="122.98"/>
	<line class="st8" x1="179.04" y1="123.98" x2="179.04" y2="122.98"/>
	<line class="st8" x1="189.01" y1="123.98" x2="189.01" y2="122.98"/>
	<text transform="matrix(1 0 0 1 26.502 129.6377)" class="st5 st6">14</text>
	<text transform="matrix(1 0 0 1 36.4766 129.6377)" class="st5 st6">18</text>
	<text transform="matrix(1 0 0 1 47.9038 129.6377)" class="st5 st6">8</text>
	<text transform="matrix(1 0 0 1 57.8804 129.6377)" class="st5 st6">3</text>
	<text transform="matrix(1 0 0 1 66.4038 129.6377)" class="st5 st6">15</text>
	<text transform="matrix(1 0 0 1 76.3794 129.6377)" class="st5 st6">12</text>
	<text transform="matrix(1 0 0 1 87.8076 129.6377)" class="st5 st6">2</text>
	<text transform="matrix(1 0 0 1 96.3325 129.6377)" class="st5 st6">16</text>
	<text transform="matrix(1 0 0 1 107.7583 129.6377)" class="st5 st6">4</text>
	<text transform="matrix(1 0 0 1 117.7339 129.6377)" class="st5 st6">1</text>
	<text transform="matrix(1 0 0 1 126.2588 129.6377)" class="st5 st6">10</text>
	<text transform="matrix(1 0 0 1 137.6841 129.6377)" class="st5 st6">5</text>
	<text transform="matrix(1 0 0 1 146.2095 129.6377)" class="st5 st6">17</text>
	<text transform="matrix(1 0 0 1 157.6357 129.6377)" class="st5 st6">9</text>
	<text transform="matrix(1 0 0 1 167.6123 129.6377)" class="st5 st6">7</text>
	<text transform="matrix(1 0 0 1 176.1367 129.6377)" class="st5 st6">13</text>
	<text transform="matrix(1 0 0 1 187.5635 129.6377)" class="st5 st6">6</text>
	<line class="st3" x1="23.42" y1="123.23" x2="23.42" y2="9.48"/>
	<text transform="matrix(1 0 0 1 7.6089 105.4478)"><tspan x="0" y="0" class="st9 st6">−</tspan><tspan x="3.5" y="0" class="st5 st6">0.04</tspan></text>
	<text transform="matrix(1 0 0 1 10.3608 82.7075)" class="st5 st6">0.00</text>
	<text transform="matrix(1 0 0 1 10.3608 59.9692)" class="st5 st6">0.04</text>
	<text transform="matrix(1 0 0 1 10.3608 37.2295)" class="st5 st6">0.08</text>
	<text transform="matrix(1 0 0 1 10.3608 14.4922)" class="st5 st6">0.12</text>
	<text transform="matrix(1 0 0 1 97.0317 138.3701)" class="st5 st10">Subject ID #</text>
	<text transform="matrix(0 -1 1 0 6.9731 100.0737)" class="st5 st11">∆ Peak Velocity (m/s)</text>
	<text transform="matrix(1 0 0 1 208.0624 53.663)" class="st12 st5 st13">*</text>
	<line class="st14" x1="22.26" y1="11.78" x2="23.34" y2="11.78"/>
	<line class="st14" x1="22.26" y1="34.78" x2="23.34" y2="34.78"/>
	<line class="st14" x1="22.26" y1="57.78" x2="23.34" y2="57.78"/>
	<line class="st14" x1="22.26" y1="80.78" x2="23.34" y2="80.78"/>
	<line class="st14" x1="22.26" y1="103.78" x2="23.34" y2="103.78"/>
</g>
</svg>
