<?xml version="1.0" encoding="utf-8"?>
<!-- Generator: Adobe Illustrator 23.0.1, SVG Export Plug-In . SVG Version: 6.00 Build 0)  -->
<svg version="1.1" id="Layer_1" xmlns="http://www.w3.org/2000/svg" xmlns:xlink="http://www.w3.org/1999/xlink" x="0px" y="0px"
	 viewBox="0 0 216 144" style="enable-background:new 0 0 216 144;" xml:space="preserve">
<style type="text/css">
	.st0{fill:none;stroke:#FFFFFF;stroke-width:1.07;stroke-linejoin:round;stroke-miterlimit:10;}
	.st1{fill:none;stroke:#FF0000;stroke-linejoin:round;stroke-miterlimit:10;}
	.st2{fill:none;stroke:#FF0000;stroke-width:2.13;stroke-linejoin:round;stroke-miterlimit:10;}
	.st3{fill:none;stroke:#000000;stroke-linejoin:round;stroke-miterlimit:10;stroke-dasharray:8.54,8.54;}
	.st4{fill:none;stroke:#000000;stroke-width:0.75;stroke-linejoin:round;stroke-miterlimit:10;stroke-dasharray:2.13,6.4;}
	.st5{fill:none;stroke:#000000;stroke-width:0.75;stroke-linecap:round;stroke-linejoin:round;stroke-miterlimit:10;}
	.st6{font-family:'Arial-BoldMT';}
	.st7{font-size:5.9062px;}
	.st8{font-family:'GillSansMT';}
	.st9{fill:none;stroke:#000000;stroke-width:1.07;stroke-linejoin:round;stroke-miterlimit:10;}
	.st10{font-size:7.875px;}
	.st11{font-size:6.7937px;}
</style>
<g>
	<line class="st0" x1="22.82" y1="80.49" x2="215" y2="80.49"/>
	<polyline class="st1" points="27.73,75.29 32.4,33.81 37.08,51.17 41.76,65.17 46.43,69.99 51.11,66.71 55.78,46.49 60.46,57.56 
		65.14,69.36 69.81,79.21 	"/>
	<polyline class="st1" points="74.49,41.53 79.16,42.55 83.84,25.92 88.52,33.06 93.19,38.55 97.87,55.98 102.54,49.86 
		107.22,43.63 111.9,60.21 116.57,71.02 	"/>
	<polyline class="st1" points="121.25,70.15 125.92,59.59 130.6,34.27 135.27,45.44 139.95,53.86 144.63,38.42 149.3,60.62 
		153.98,51.55 158.65,46.75 163.33,53.49 	"/>
	<polyline class="st1" points="168.01,72.96 172.68,73.2 177.36,60.97 182.03,81.27 186.71,40.74 191.39,97.74 196.06,71.96 
		200.74,102.87 205.42,72.16 210.09,85.45 	"/>
	<line class="st1" x1="25.62" y1="53.58" x2="29.83" y2="53.58"/>
	<line class="st1" x1="27.73" y1="53.58" x2="27.73" y2="97.01"/>
	<line class="st1" x1="25.62" y1="97.01" x2="29.83" y2="97.01"/>
	<line class="st1" x1="30.3" y1="14.9" x2="34.51" y2="14.9"/>
	<line class="st1" x1="32.4" y1="14.9" x2="32.4" y2="52.73"/>
	<line class="st1" x1="30.3" y1="52.73" x2="34.51" y2="52.73"/>
	<line class="st1" x1="34.98" y1="36.17" x2="39.18" y2="36.17"/>
	<line class="st1" x1="37.08" y1="36.17" x2="37.08" y2="66.16"/>
	<line class="st1" x1="34.98" y1="66.16" x2="39.18" y2="66.16"/>
	<line class="st1" x1="39.65" y1="47.59" x2="43.86" y2="47.59"/>
	<line class="st1" x1="41.76" y1="47.59" x2="41.76" y2="82.75"/>
	<line class="st1" x1="39.65" y1="82.75" x2="43.86" y2="82.75"/>
	<line class="st1" x1="44.33" y1="53.11" x2="48.54" y2="53.11"/>
	<line class="st1" x1="46.43" y1="53.11" x2="46.43" y2="86.88"/>
	<line class="st1" x1="44.33" y1="86.88" x2="48.54" y2="86.88"/>
	<line class="st1" x1="49" y1="53.92" x2="53.21" y2="53.92"/>
	<line class="st1" x1="51.11" y1="53.92" x2="51.11" y2="79.5"/>
	<line class="st1" x1="49" y1="79.5" x2="53.21" y2="79.5"/>
	<line class="st1" x1="53.68" y1="32.07" x2="57.89" y2="32.07"/>
	<line class="st1" x1="55.78" y1="32.07" x2="55.78" y2="60.89"/>
	<line class="st1" x1="53.68" y1="60.89" x2="57.89" y2="60.89"/>
	<line class="st1" x1="58.36" y1="43.54" x2="62.56" y2="43.54"/>
	<line class="st1" x1="60.46" y1="43.54" x2="60.46" y2="71.58"/>
	<line class="st1" x1="58.36" y1="71.58" x2="62.56" y2="71.58"/>
	<line class="st1" x1="63.03" y1="55.53" x2="67.24" y2="55.53"/>
	<line class="st1" x1="65.14" y1="55.53" x2="65.14" y2="83.19"/>
	<line class="st1" x1="63.03" y1="83.19" x2="67.24" y2="83.19"/>
	<line class="st1" x1="67.71" y1="64.88" x2="71.92" y2="64.88"/>
	<line class="st1" x1="69.81" y1="64.88" x2="69.81" y2="93.55"/>
	<line class="st1" x1="67.71" y1="93.55" x2="71.92" y2="93.55"/>
	<line class="st1" x1="72.38" y1="30.26" x2="76.59" y2="30.26"/>
	<line class="st1" x1="74.49" y1="30.26" x2="74.49" y2="52.8"/>
	<line class="st1" x1="72.38" y1="52.8" x2="76.59" y2="52.8"/>
	<line class="st1" x1="77.06" y1="26.7" x2="81.27" y2="26.7"/>
	<line class="st1" x1="79.16" y1="26.7" x2="79.16" y2="58.41"/>
	<line class="st1" x1="77.06" y1="58.41" x2="81.27" y2="58.41"/>
	<line class="st1" x1="81.74" y1="8.85" x2="85.94" y2="8.85"/>
	<line class="st1" x1="83.84" y1="8.85" x2="83.84" y2="42.99"/>
	<line class="st1" x1="81.74" y1="42.99" x2="85.94" y2="42.99"/>
	<line class="st1" x1="86.41" y1="15.61" x2="90.62" y2="15.61"/>
	<line class="st1" x1="88.52" y1="15.61" x2="88.52" y2="50.52"/>
	<line class="st1" x1="86.41" y1="50.52" x2="90.62" y2="50.52"/>
	<line class="st1" x1="91.09" y1="25.5" x2="95.3" y2="25.5"/>
	<line class="st1" x1="93.19" y1="25.5" x2="93.19" y2="51.61"/>
	<line class="st1" x1="91.09" y1="51.61" x2="95.3" y2="51.61"/>
	<line class="st1" x1="95.76" y1="42.44" x2="99.97" y2="42.44"/>
	<line class="st1" x1="97.87" y1="42.44" x2="97.87" y2="69.5"/>
	<line class="st1" x1="95.76" y1="69.5" x2="99.97" y2="69.5"/>
	<line class="st1" x1="100.44" y1="35.72" x2="104.65" y2="35.72"/>
	<line class="st1" x1="102.54" y1="35.72" x2="102.54" y2="63.99"/>
	<line class="st1" x1="100.44" y1="63.99" x2="104.65" y2="63.99"/>
	<line class="st1" x1="105.12" y1="31.77" x2="109.32" y2="31.77"/>
	<line class="st1" x1="107.22" y1="31.77" x2="107.22" y2="55.49"/>
	<line class="st1" x1="105.12" y1="55.49" x2="109.32" y2="55.49"/>
	<line class="st1" x1="109.79" y1="46.97" x2="114" y2="46.97"/>
	<line class="st1" x1="111.9" y1="46.97" x2="111.9" y2="73.44"/>
	<line class="st1" x1="109.79" y1="73.44" x2="114" y2="73.44"/>
	<line class="st1" x1="114.47" y1="53.56" x2="118.68" y2="53.56"/>
	<line class="st1" x1="116.57" y1="53.56" x2="116.57" y2="88.49"/>
	<line class="st1" x1="114.47" y1="88.49" x2="118.68" y2="88.49"/>
	<line class="st1" x1="119.14" y1="51.5" x2="123.35" y2="51.5"/>
	<line class="st1" x1="121.25" y1="51.5" x2="121.25" y2="88.8"/>
	<line class="st1" x1="119.14" y1="88.8" x2="123.35" y2="88.8"/>
	<line class="st1" x1="123.82" y1="41.67" x2="128.03" y2="41.67"/>
	<line class="st1" x1="125.92" y1="41.67" x2="125.92" y2="77.51"/>
	<line class="st1" x1="123.82" y1="77.51" x2="128.03" y2="77.51"/>
	<line class="st1" x1="128.49" y1="20.65" x2="132.7" y2="20.65"/>
	<line class="st1" x1="130.6" y1="20.65" x2="130.6" y2="47.89"/>
	<line class="st1" x1="128.49" y1="47.89" x2="132.7" y2="47.89"/>
	<line class="st1" x1="133.17" y1="30.54" x2="137.38" y2="30.54"/>
	<line class="st1" x1="135.27" y1="30.54" x2="135.27" y2="60.34"/>
	<line class="st1" x1="133.17" y1="60.34" x2="137.38" y2="60.34"/>
	<line class="st1" x1="137.85" y1="39.42" x2="142.05" y2="39.42"/>
	<line class="st1" x1="139.95" y1="39.42" x2="139.95" y2="68.3"/>
	<line class="st1" x1="137.85" y1="68.3" x2="142.05" y2="68.3"/>
	<line class="st1" x1="142.52" y1="19.95" x2="146.73" y2="19.95"/>
	<line class="st1" x1="144.63" y1="19.95" x2="144.63" y2="56.9"/>
	<line class="st1" x1="142.52" y1="56.9" x2="146.73" y2="56.9"/>
	<line class="st1" x1="147.2" y1="43.08" x2="151.41" y2="43.08"/>
	<line class="st1" x1="149.3" y1="43.08" x2="149.3" y2="78.16"/>
	<line class="st1" x1="147.2" y1="78.16" x2="151.41" y2="78.16"/>
	<line class="st1" x1="151.87" y1="41.51" x2="156.08" y2="41.51"/>
	<line class="st1" x1="153.98" y1="41.51" x2="153.98" y2="61.58"/>
	<line class="st1" x1="151.87" y1="61.58" x2="156.08" y2="61.58"/>
	<line class="st1" x1="156.55" y1="31.44" x2="160.76" y2="31.44"/>
	<line class="st1" x1="158.65" y1="31.44" x2="158.65" y2="62.06"/>
	<line class="st1" x1="156.55" y1="62.06" x2="160.76" y2="62.06"/>
	<line class="st1" x1="161.23" y1="37.83" x2="165.43" y2="37.83"/>
	<line class="st1" x1="163.33" y1="37.83" x2="163.33" y2="69.15"/>
	<line class="st1" x1="161.23" y1="69.15" x2="165.43" y2="69.15"/>
	<line class="st1" x1="165.9" y1="46.59" x2="170.11" y2="46.59"/>
	<line class="st1" x1="168.01" y1="46.59" x2="168.01" y2="99.33"/>
	<line class="st1" x1="165.9" y1="99.33" x2="170.11" y2="99.33"/>
	<line class="st1" x1="170.58" y1="48.49" x2="174.79" y2="48.49"/>
	<line class="st1" x1="172.68" y1="48.49" x2="172.68" y2="97.92"/>
	<line class="st1" x1="170.58" y1="97.92" x2="174.79" y2="97.92"/>
	<line class="st1" x1="175.25" y1="40.08" x2="179.46" y2="40.08"/>
	<line class="st1" x1="177.36" y1="40.08" x2="177.36" y2="81.85"/>
	<line class="st1" x1="175.25" y1="81.85" x2="179.46" y2="81.85"/>
	<line class="st1" x1="179.93" y1="63.44" x2="184.14" y2="63.44"/>
	<line class="st1" x1="182.03" y1="63.44" x2="182.03" y2="99.1"/>
	<line class="st1" x1="179.93" y1="99.1" x2="184.14" y2="99.1"/>
	<line class="st1" x1="184.61" y1="21.75" x2="188.82" y2="21.75"/>
	<line class="st1" x1="186.71" y1="21.75" x2="186.71" y2="59.72"/>
	<line class="st1" x1="184.61" y1="59.72" x2="188.82" y2="59.72"/>
	<line class="st1" x1="189.28" y1="73.45" x2="193.49" y2="73.45"/>
	<line class="st1" x1="191.39" y1="73.45" x2="191.39" y2="122.02"/>
	<line class="st2" x1="189.28" y1="122.02" x2="193.49" y2="122.02"/>
	<line class="st1" x1="193.96" y1="55.54" x2="198.17" y2="55.54"/>
	<line class="st1" x1="196.06" y1="55.54" x2="196.06" y2="88.38"/>
	<line class="st1" x1="193.96" y1="88.38" x2="198.17" y2="88.38"/>
	<line class="st1" x1="198.63" y1="87.83" x2="202.84" y2="87.83"/>
	<line class="st1" x1="200.74" y1="87.83" x2="200.74" y2="117.91"/>
	<line class="st1" x1="198.63" y1="117.91" x2="202.84" y2="117.91"/>
	<line class="st1" x1="203.31" y1="56.33" x2="207.52" y2="56.33"/>
	<line class="st1" x1="205.42" y1="56.33" x2="205.42" y2="87.99"/>
	<line class="st1" x1="203.31" y1="87.99" x2="207.52" y2="87.99"/>
	<line class="st1" x1="207.99" y1="63.81" x2="212.2" y2="63.81"/>
	<line class="st1" x1="210.09" y1="63.81" x2="210.09" y2="107.09"/>
	<line class="st1" x1="207.99" y1="107.09" x2="212.2" y2="107.09"/>
	<line class="st3" x1="22.82" y1="80.49" x2="215" y2="80.49"/>
	<line class="st4" x1="72.15" y1="127.68" x2="72.15" y2="3.19"/>
	<line class="st4" x1="118.91" y1="127.68" x2="118.91" y2="3.19"/>
	<line class="st4" x1="165.67" y1="127.68" x2="165.67" y2="3.19"/>
	<line class="st5" x1="22.82" y1="127.68" x2="22.82" y2="3.19"/>
	<text transform="matrix(1 0 0 1 7.1279 120.8193)"><tspan x="0" y="0" class="st6 st7">−</tspan><tspan x="3.45" y="0" class="st8 st7">0.05</tspan></text>
	<text transform="matrix(1 0 0 1 10.2998 82.4443)" class="st8 st7">0.00</text>
	<text transform="matrix(1 0 0 1 10.2998 44.0698)" class="st8 st7">0.05</text>
	<text transform="matrix(1 0 0 1 10.2998 5.6953)" class="st8 st7">0.10</text>
	<line class="st9" x1="21.99" y1="118.88" x2="22.73" y2="118.88"/>
	<line class="st9" x1="21.99" y1="80.49" x2="22.73" y2="80.49"/>
	<line class="st9" x1="21.99" y1="42.12" x2="22.73" y2="42.12"/>
	<line class="st9" x1="21.99" y1="3.74" x2="22.73" y2="3.74"/>
	<line class="st5" x1="22.82" y1="127.68" x2="215" y2="127.68"/>
	<text transform="matrix(1 0 0 1 97.874 142.6738)"><tspan x="0" y="0" class="st8 st10">P</tspan><tspan x="4.01" y="0" class="st8 st10">r</tspan><tspan x="6.98" y="0" class="st8 st10">obe </tspan><tspan x="21.22" y="0" class="st8 st10">T</tspan><tspan x="25.35" y="0" class="st8 st10">rial #</tspan></text>
	<text transform="matrix(0 -1 1 0 7.0928 94.0713)" class="st8 st10">∆ Peak Velocity (m/s)</text>
	<text transform="matrix(1 0 0 1 66.4072 133.8877)" class="st8 st11">10</text>
	<text transform="matrix(1 0 0 1 112.8359 133.8877)" class="st8 st11">20</text>
	<text transform="matrix(1 0 0 1 158.6553 133.8877)" class="st8 st11">30</text>
	<text transform="matrix(1 0 0 1 206.5527 133.8877)" class="st8 st11">40</text>
	<line class="st9" x1="69.9" y1="128.76" x2="69.9" y2="127.77"/>
	<line class="st9" x1="116.66" y1="128.76" x2="116.66" y2="127.77"/>
	<line class="st9" x1="161.94" y1="128.76" x2="161.94" y2="127.77"/>
	<line class="st9" x1="210.17" y1="128.76" x2="210.17" y2="127.77"/>
</g>
</svg>
