<?xml version="1.0" encoding="utf-8"?>
<!-- Generator: Adobe Illustrator 23.0.1, SVG Export Plug-In . SVG Version: 6.00 Build 0)  -->
<svg version="1.1" id="Layer_1" xmlns="http://www.w3.org/2000/svg" xmlns:xlink="http://www.w3.org/1999/xlink" x="0px" y="0px"
	 viewBox="0 0 216 144" style="enable-background:new 0 0 216 144;" xml:space="preserve">
<style type="text/css">
	.st0{fill:none;stroke:#FFFFFF;stroke-width:1.07;stroke-linejoin:round;stroke-miterlimit:10;}
	.st1{fill:#A7ACD7;}
	.st2{fill:none;stroke:#000000;stroke-width:0.75;stroke-linejoin:round;stroke-miterlimit:10;}
	.st3{fill:none;stroke:#000000;stroke-linejoin:round;stroke-miterlimit:10;}
	.st4{fill:none;stroke:#000000;stroke-width:1.07;stroke-linejoin:round;stroke-miterlimit:10;}
	.st5{fill:none;stroke:#000000;stroke-linecap:round;stroke-linejoin:round;stroke-miterlimit:10;}
	.st6{font-family:'GillSansMT';}
	.st7{font-size:5.9666px;}
	.st8{font-family:'Arial-BoldMT';}
	.st9{fill:none;stroke:#000000;stroke-width:0.75;stroke-linecap:round;stroke-linejoin:round;stroke-miterlimit:10;}
	.st10{stroke:#000000;stroke-width:1.07;stroke-linejoin:round;stroke-miterlimit:10;}
	.st11{font-size:7.5939px;}
</style>
<line class="st0" x1="22.11" y1="64.81" x2="192.84" y2="64.81"/>
<rect x="23.6" y="28.24" class="st1" width="8.93" height="36.57"/>
<rect x="33.53" y="34.68" class="st1" width="8.93" height="30.14"/>
<rect x="43.45" y="50.9" class="st1" width="8.93" height="13.92"/>
<rect x="53.38" y="60.68" class="st1" width="8.93" height="4.14"/>
<rect x="63.3" y="62.12" class="st1" width="8.93" height="2.69"/>
<rect x="73.23" y="64.81" class="st1" width="8.93" height="5.8"/>
<rect x="83.16" y="64.81" class="st1" width="8.93" height="6.13"/>
<rect x="93.08" y="64.81" class="st1" width="8.93" height="7.69"/>
<rect x="103.01" y="64.81" class="st1" width="8.93" height="10.22"/>
<rect x="112.93" y="64.81" class="st1" width="8.93" height="10.84"/>
<rect x="122.86" y="64.81" class="st1" width="8.93" height="13.84"/>
<rect x="132.78" y="64.81" class="st1" width="8.93" height="14.77"/>
<rect x="142.71" y="64.81" class="st1" width="8.93" height="17.65"/>
<rect x="152.64" y="64.81" class="st1" width="8.93" height="22.89"/>
<rect x="162.56" y="64.81" class="st1" width="8.93" height="24.12"/>
<rect x="172.49" y="64.81" class="st1" width="8.93" height="24.34"/>
<rect x="182.41" y="64.81" class="st1" width="8.93" height="34.61"/>
<line class="st2" x1="142.71" y1="72.92" x2="151.64" y2="72.92"/>
<line class="st2" x1="147.18" y1="72.92" x2="147.18" y2="92"/>
<line class="st2" x1="142.71" y1="92" x2="151.64" y2="92"/>
<line class="st2" x1="43.45" y1="43.18" x2="52.39" y2="43.18"/>
<line class="st2" x1="47.92" y1="43.18" x2="47.92" y2="58.61"/>
<line class="st2" x1="43.45" y1="58.61" x2="52.39" y2="58.61"/>
<line class="st2" x1="172.49" y1="86.37" x2="181.42" y2="86.37"/>
<line class="st3" x1="176.95" y1="86.37" x2="176.95" y2="91.93"/>
<line class="st2" x1="172.49" y1="91.93" x2="181.42" y2="91.93"/>
<line class="st2" x1="103.01" y1="71.99" x2="111.94" y2="71.99"/>
<line class="st2" x1="107.47" y1="71.99" x2="107.47" y2="78.07"/>
<line class="st2" x1="103.01" y1="78.07" x2="111.94" y2="78.07"/>
<line class="st2" x1="63.3" y1="55.44" x2="72.24" y2="55.44"/>
<line class="st2" x1="67.77" y1="55.44" x2="67.77" y2="68.81"/>
<line class="st2" x1="63.3" y1="68.81" x2="72.24" y2="68.81"/>
<line class="st2" x1="23.6" y1="13.51" x2="32.53" y2="13.51"/>
<line class="st2" x1="28.07" y1="13.51" x2="28.07" y2="42.97"/>
<line class="st2" x1="23.6" y1="42.97" x2="32.53" y2="42.97"/>
<line class="st2" x1="112.93" y1="67.32" x2="121.87" y2="67.32"/>
<line class="st2" x1="117.4" y1="67.32" x2="117.4" y2="83.99"/>
<line class="st2" x1="112.93" y1="83.99" x2="121.87" y2="83.99"/>
<line class="st2" x1="73.23" y1="62.78" x2="82.16" y2="62.78"/>
<line class="st2" x1="77.7" y1="62.78" x2="77.7" y2="78.45"/>
<line class="st2" x1="73.23" y1="78.45" x2="82.16" y2="78.45"/>
<line class="st2" x1="53.38" y1="52.39" x2="62.31" y2="52.39"/>
<line class="st2" x1="57.85" y1="52.39" x2="57.85" y2="68.96"/>
<line class="st2" x1="53.38" y1="68.96" x2="62.31" y2="68.96"/>
<line class="st2" x1="83.16" y1="62.42" x2="92.09" y2="62.42"/>
<line class="st2" x1="87.62" y1="62.42" x2="87.62" y2="79.47"/>
<line class="st2" x1="83.16" y1="79.47" x2="92.09" y2="79.47"/>
<line class="st2" x1="162.56" y1="84.44" x2="171.5" y2="84.44"/>
<line class="st2" x1="167.03" y1="84.44" x2="167.03" y2="93.43"/>
<line class="st2" x1="162.56" y1="93.43" x2="171.5" y2="93.43"/>
<line class="st2" x1="33.53" y1="17.81" x2="42.46" y2="17.81"/>
<line class="st2" x1="37.99" y1="17.81" x2="37.99" y2="51.55"/>
<line class="st2" x1="33.53" y1="51.55" x2="42.46" y2="51.55"/>
<line class="st2" x1="132.78" y1="77.59" x2="141.72" y2="77.59"/>
<line class="st2" x1="137.25" y1="77.59" x2="137.25" y2="81.57"/>
<line class="st2" x1="132.78" y1="81.57" x2="141.72" y2="81.57"/>
<line class="st2" x1="122.86" y1="75.93" x2="131.79" y2="75.93"/>
<line class="st2" x1="127.32" y1="75.93" x2="127.32" y2="81.37"/>
<line class="st2" x1="122.86" y1="81.37" x2="131.79" y2="81.37"/>
<line class="st2" x1="152.64" y1="81.43" x2="161.57" y2="81.43"/>
<line class="st2" x1="157.1" y1="81.43" x2="157.1" y2="93.98"/>
<line class="st2" x1="152.64" y1="93.98" x2="161.57" y2="93.98"/>
<line class="st2" x1="93.08" y1="68.4" x2="102.01" y2="68.4"/>
<line class="st2" x1="97.55" y1="68.4" x2="97.55" y2="76.6"/>
<line class="st2" x1="93.08" y1="76.6" x2="102.01" y2="76.6"/>
<line class="st2" x1="182.41" y1="84.75" x2="191.35" y2="84.75"/>
<line class="st2" x1="186.88" y1="84.75" x2="186.88" y2="114.1"/>
<line class="st2" x1="182.41" y1="114.1" x2="191.35" y2="114.1"/>
<line class="st0" x1="202.51" y1="64.81" x2="214.42" y2="64.81"/>
<rect x="204" y="64.81" class="st1" width="8.93" height="6.2"/>
<line class="st4" x1="204" y1="66.41" x2="212.93" y2="66.41"/>
<line class="st4" x1="208.46" y1="66.41" x2="208.46" y2="75.63"/>
<line class="st4" x1="204" y1="75.63" x2="212.93" y2="75.63"/>
<line class="st5" x1="22.11" y1="119.13" x2="192.84" y2="119.13"/>
<line class="st4" x1="28.07" y1="119.96" x2="28.07" y2="118.87"/>
<line class="st4" x1="37.99" y1="119.96" x2="37.99" y2="118.87"/>
<line class="st4" x1="47.92" y1="119.96" x2="47.92" y2="118.87"/>
<line class="st4" x1="57.85" y1="119.96" x2="57.85" y2="118.87"/>
<line class="st4" x1="67.77" y1="119.96" x2="67.77" y2="118.87"/>
<line class="st4" x1="77.7" y1="119.96" x2="77.7" y2="118.87"/>
<line class="st4" x1="87.62" y1="119.96" x2="87.62" y2="118.87"/>
<line class="st4" x1="97.55" y1="119.96" x2="97.55" y2="118.87"/>
<line class="st4" x1="107.47" y1="119.96" x2="107.47" y2="118.87"/>
<line class="st4" x1="117.4" y1="119.96" x2="117.4" y2="118.87"/>
<line class="st4" x1="127.32" y1="119.96" x2="127.32" y2="118.87"/>
<line class="st4" x1="137.25" y1="119.96" x2="137.25" y2="118.87"/>
<line class="st4" x1="147.18" y1="119.96" x2="147.18" y2="118.87"/>
<line class="st4" x1="157.1" y1="119.96" x2="157.1" y2="118.87"/>
<line class="st4" x1="167.03" y1="119.96" x2="167.03" y2="118.87"/>
<line class="st4" x1="176.95" y1="119.96" x2="176.95" y2="118.87"/>
<line class="st4" x1="186.88" y1="119.96" x2="186.88" y2="118.87"/>
<text transform="matrix(1 0 0 1 26.1128 125.292)" class="st6 st7">6</text>
<text transform="matrix(1 0 0 1 34.6274 125.292)" class="st6 st7">13</text>
<text transform="matrix(1 0 0 1 45.9663 125.292)" class="st6 st7">2</text>
<text transform="matrix(1 0 0 1 55.8911 125.292)" class="st6 st7">9</text>
<text transform="matrix(1 0 0 1 65.8169 125.292)" class="st6 st7">5</text>
<text transform="matrix(1 0 0 1 75.7417 125.292)" class="st6 st7">8</text>
<text transform="matrix(1 0 0 1 84.2563 125.292)" class="st6 st7">10</text>
<text transform="matrix(1 0 0 1 94.1831 125.292)" class="st6 st7">17</text>
<text transform="matrix(1 0 0 1 105.52 125.292)" class="st6 st7">4</text>
<text transform="matrix(1 0 0 1 115.4443 125.292)" class="st6 st7">7</text>
<text transform="matrix(1 0 0 1 123.96 125.292)" class="st6 st7">15</text>
<text transform="matrix(1 0 0 1 133.8857 125.292)" class="st6 st7">14</text>
<text transform="matrix(1 0 0 1 145.2217 125.292)" class="st6 st7">1</text>
<text transform="matrix(1 0 0 1 153.7373 125.292)" class="st6 st7">16</text>
<text transform="matrix(1 0 0 1 163.6621 125.292)" class="st6 st7">12</text>
<text transform="matrix(1 0 0 1 175.001 125.292)" class="st6 st7">3</text>
<text transform="matrix(1 0 0 1 183.5137 125.292)" class="st6 st7">18</text>
<line class="st5" x1="202.51" y1="119.13" x2="214.42" y2="119.13"/>
<line class="st4" x1="208.46" y1="119.96" x2="208.46" y2="118.87"/>
<text transform="matrix(1 0 0 1 204.2539 125.292)" class="st6 st7">All</text>
<text transform="matrix(1 0 0 1 10.1089 98.1465)"><tspan x="0" y="0" class="st8 st7">−</tspan><tspan x="3.48" y="0" class="st6 st7">0.2</tspan></text>
<text transform="matrix(1 0 0 1 13.0757 67.1777)" class="st6 st7">0.0</text>
<text transform="matrix(1 0 0 1 13.0757 36.209)" class="st6 st7">0.2</text>
<line class="st9" x1="22.11" y1="119.13" x2="22.11" y2="8.48"/>
<line class="st10" x1="21.26" y1="95.78" x2="22.34" y2="95.78"/>
<line class="st10" x1="21.26" y1="64.81" x2="22.34" y2="64.81"/>
<line class="st10" x1="21.26" y1="33.84" x2="22.34" y2="33.84"/>
<text transform="matrix(1 0 0 1 95.7603 133.8564)" class="st6 st11">Subject ID #</text>
<text transform="matrix(0 -0.8995 1 0 6.9731 98.46)" class="st6 st11">∆ Travel Duration (s)</text>
<text transform="matrix(1 0 0 1 204.1143 84.0781)" class="st6 st7">N.S</text>
</svg>
